<?xml version="1.0" encoding="utf-8" standalone="no"?>
<!DOCTYPE svg PUBLIC "-//W3C//DTD SVG 1.1//EN"
  "http://www.w3.org/Graphics/SVG/1.1/DTD/svg11.dtd">
<svg xmlns:xlink="http://www.w3.org/1999/xlink" width="648pt" height="396pt" viewBox="0 0 648 396" xmlns="http://www.w3.org/2000/svg" version="1.1">
 <metadata>
  <rdf:RDF xmlns:dc="http://purl.org/dc/elements/1.1/" xmlns:cc="http://creativecommons.org/ns#" xmlns:rdf="http://www.w3.org/1999/02/22-rdf-syntax-ns#">
   <cc:Work>
    <dc:type rdf:resource="http://purl.org/dc/dcmitype/StillImage"/>
    <dc:date>2026-08-18T22:49:57.118088</dc:date>
    <dc:format>image/svg+xml</dc:format>
    <dc:creator>
     <cc:Agent>
      <dc:title>Matplotlib v3.10.9, https://matplotlib.org/</dc:title>
     </cc:Agent>
    </dc:creator>
   </cc:Work>
  </rdf:RDF>
 </metadata>
 <defs>
  <style type="text/css">*{stroke-linejoin: round; stroke-linecap: butt}</style>
 </defs>
 <g id="figure_1">
  <g id="patch_1">
   <path d="M 0 396 
L 648 396 
L 648 0 
L 0 0 
z
" style="fill: #ffffff"/>
  </g>
  <g id="axes_1">
   <g id="patch_2">
    <path d="M 10.8 358.0416 
L 323.013887 358.0416 
L 323.013887 77.800015 
L 10.8 77.800015 
z
" clip-path="url(#p640435f216)" style="fill: #c65b4e; stroke: #ffffff; stroke-width: 1.2; stroke-linejoin: miter"/>
   </g>
   <g id="patch_3">
    <path d="M 10.8 77.800015 
L 323.013887 77.800015 
L 323.013887 10.8 
L 10.8 10.8 
z
" clip-path="url(#p640435f216)" style="fill: #2b6f6f; stroke: #ffffff; stroke-width: 1.2; stroke-linejoin: miter"/>
   </g>
   <g id="patch_4">
    <path d="M 323.013887 358.0416 
L 546.985457 358.0416 
L 546.985457 52.957858 
L 323.013887 52.957858 
z
" clip-path="url(#p640435f216)" style="fill: #c65b4e; stroke: #ffffff; stroke-width: 1.2; stroke-linejoin: miter"/>
   </g>
   <g id="patch_5">
    <path d="M 323.013887 52.957858 
L 546.985457 52.957858 
L 546.985457 10.8 
L 323.013887 10.8 
z
" clip-path="url(#p640435f216)" style="fill: #2b6f6f; stroke: #ffffff; stroke-width: 1.2; stroke-linejoin: miter"/>
   </g>
   <g id="patch_6">
    <path d="M 546.985457 358.0416 
L 633.88737 358.0416 
L 633.88737 213.713485 
L 546.985457 213.713485 
z
" clip-path="url(#p640435f216)" style="fill: #c65b4e; stroke: #ffffff; stroke-width: 1.2; stroke-linejoin: miter"/>
   </g>
   <g id="patch_7">
    <path d="M 546.985457 213.713485 
L 633.88737 213.713485 
L 633.88737 10.8 
L 546.985457 10.8 
z
" clip-path="url(#p640435f216)" style="fill: #2b6f6f; stroke: #ffffff; stroke-width: 1.2; stroke-linejoin: miter"/>
   </g>
   <g id="patch_8">
    <path d="M 633.88737 358.0416 
L 636.172553 358.0416 
L 636.172553 116.677284 
L 633.88737 116.677284 
z
" clip-path="url(#p640435f216)" style="fill: #c65b4e; stroke: #ffffff; stroke-width: 1.2; stroke-linejoin: miter"/>
   </g>
   <g id="patch_9">
    <path d="M 633.88737 116.677284 
L 636.172553 116.677284 
L 636.172553 10.8 
L 633.88737 10.8 
z
" clip-path="url(#p640435f216)" style="fill: #2b6f6f; stroke: #ffffff; stroke-width: 1.2; stroke-linejoin: miter"/>
   </g>
   <g id="patch_10">
    <path d="M 636.172553 358.0416 
L 637.2 358.0416 
L 637.2 150.494897 
L 636.172553 150.494897 
z
" clip-path="url(#p640435f216)" style="fill: #c65b4e; stroke: #ffffff; stroke-width: 1.2; stroke-linejoin: miter"/>
   </g>
   <g id="patch_11">
    <path d="M 636.172553 150.494897 
L 637.2 150.494897 
L 637.2 10.8 
L 636.172553 10.8 
z
" clip-path="url(#p640435f216)" style="fill: #2b6f6f; stroke: #ffffff; stroke-width: 1.2; stroke-linejoin: miter"/>
   </g>
   <g id="text_1">
    <!-- other -->
    <g style="fill: #ffffff" transform="translate(153.189678 176.826206) scale(0.09 -0.09)">
     <defs>
      <path id="DejaVuSans-Bold-6f" d="M 2203 2784 
Q 1831 2784 1636 2517 
Q 1441 2250 1441 1747 
Q 1441 1244 1636 976 
Q 1831 709 2203 709 
Q 2569 709 2762 976 
Q 2956 1244 2956 1747 
Q 2956 2250 2762 2517 
Q 2569 2784 2203 2784 
z
M 2203 3584 
Q 3106 3584 3614 3096 
Q 4122 2609 4122 1747 
Q 4122 884 3614 396 
Q 3106 -91 2203 -91 
Q 1297 -91 786 396 
Q 275 884 275 1747 
Q 275 2609 786 3096 
Q 1297 3584 2203 3584 
z
" transform="scale(0.015625)"/>
      <path id="DejaVuSans-Bold-74" d="M 1759 4494 
L 1759 3500 
L 2913 3500 
L 2913 2700 
L 1759 2700 
L 1759 1216 
Q 1759 972 1856 886 
Q 1953 800 2241 800 
L 2816 800 
L 2816 0 
L 1856 0 
Q 1194 0 917 276 
Q 641 553 641 1216 
L 641 2700 
L 84 2700 
L 84 3500 
L 641 3500 
L 641 4494 
L 1759 4494 
z
" transform="scale(0.015625)"/>
      <path id="DejaVuSans-Bold-68" d="M 4056 2131 
L 4056 0 
L 2931 0 
L 2931 347 
L 2931 1625 
Q 2931 2084 2911 2256 
Q 2891 2428 2841 2509 
Q 2775 2619 2662 2680 
Q 2550 2741 2406 2741 
Q 2056 2741 1856 2470 
Q 1656 2200 1656 1722 
L 1656 0 
L 538 0 
L 538 4863 
L 1656 4863 
L 1656 2988 
Q 1909 3294 2193 3439 
Q 2478 3584 2822 3584 
Q 3428 3584 3742 3212 
Q 4056 2841 4056 2131 
z
" transform="scale(0.015625)"/>
      <path id="DejaVuSans-Bold-65" d="M 4031 1759 
L 4031 1441 
L 1416 1441 
Q 1456 1047 1700 850 
Q 1944 653 2381 653 
Q 2734 653 3104 758 
Q 3475 863 3866 1075 
L 3866 213 
Q 3469 63 3072 -14 
Q 2675 -91 2278 -91 
Q 1328 -91 801 392 
Q 275 875 275 1747 
Q 275 2603 792 3093 
Q 1309 3584 2216 3584 
Q 3041 3584 3536 3087 
Q 4031 2591 4031 1759 
z
M 2881 2131 
Q 2881 2450 2695 2645 
Q 2509 2841 2209 2841 
Q 1884 2841 1681 2658 
Q 1478 2475 1428 2131 
L 2881 2131 
z
" transform="scale(0.015625)"/>
      <path id="DejaVuSans-Bold-72" d="M 3138 2547 
Q 2991 2616 2845 2648 
Q 2700 2681 2553 2681 
Q 2122 2681 1889 2404 
Q 1656 2128 1656 1613 
L 1656 0 
L 538 0 
L 538 3500 
L 1656 3500 
L 1656 2925 
Q 1872 3269 2151 3426 
Q 2431 3584 2822 3584 
Q 2878 3584 2943 3579 
Q 3009 3575 3134 3559 
L 3138 2547 
z
" transform="scale(0.015625)"/>
     </defs>
     <use xlink:href="#DejaVuSans-Bold-6f"/>
     <use xlink:href="#DejaVuSans-Bold-74" transform="translate(68.701172 0)"/>
     <use xlink:href="#DejaVuSans-Bold-68" transform="translate(116.503906 0)"/>
     <use xlink:href="#DejaVuSans-Bold-65" transform="translate(187.695312 0)"/>
     <use xlink:href="#DejaVuSans-Bold-72" transform="translate(255.517578 0)"/>
    </g>
    <!-- n=52874 -->
    <g style="fill: #ffffff" transform="translate(144.277569 186.904237) scale(0.09 -0.09)">
     <defs>
      <path id="DejaVuSans-Bold-6e" d="M 4056 2131 
L 4056 0 
L 2931 0 
L 2931 347 
L 2931 1631 
Q 2931 2084 2911 2256 
Q 2891 2428 2841 2509 
Q 2775 2619 2662 2680 
Q 2550 2741 2406 2741 
Q 2056 2741 1856 2470 
Q 1656 2200 1656 1722 
L 1656 0 
L 538 0 
L 538 3500 
L 1656 3500 
L 1656 2988 
Q 1909 3294 2193 3439 
Q 2478 3584 2822 3584 
Q 3428 3584 3742 3212 
Q 4056 2841 4056 2131 
z
" transform="scale(0.015625)"/>
      <path id="DejaVuSans-Bold-3d" d="M 678 3084 
L 4684 3084 
L 4684 2350 
L 678 2350 
L 678 3084 
z
M 678 1663 
L 4684 1663 
L 4684 922 
L 678 922 
L 678 1663 
z
" transform="scale(0.015625)"/>
      <path id="DejaVuSans-Bold-35" d="M 678 4666 
L 3669 4666 
L 3669 3781 
L 1638 3781 
L 1638 3059 
Q 1775 3097 1914 3117 
Q 2053 3138 2203 3138 
Q 3056 3138 3531 2711 
Q 4006 2284 4006 1522 
Q 4006 766 3489 337 
Q 2972 -91 2053 -91 
Q 1656 -91 1267 -14 
Q 878 63 494 219 
L 494 1166 
Q 875 947 1217 837 
Q 1559 728 1863 728 
Q 2300 728 2551 942 
Q 2803 1156 2803 1522 
Q 2803 1891 2551 2103 
Q 2300 2316 1863 2316 
Q 1603 2316 1309 2248 
Q 1016 2181 678 2041 
L 678 4666 
z
" transform="scale(0.015625)"/>
      <path id="DejaVuSans-Bold-32" d="M 1844 884 
L 3897 884 
L 3897 0 
L 506 0 
L 506 884 
L 2209 2388 
Q 2438 2594 2547 2791 
Q 2656 2988 2656 3200 
Q 2656 3528 2436 3728 
Q 2216 3928 1850 3928 
Q 1569 3928 1234 3808 
Q 900 3688 519 3450 
L 519 4475 
Q 925 4609 1322 4679 
Q 1719 4750 2100 4750 
Q 2938 4750 3402 4381 
Q 3866 4013 3866 3353 
Q 3866 2972 3669 2642 
Q 3472 2313 2841 1759 
L 1844 884 
z
" transform="scale(0.015625)"/>
      <path id="DejaVuSans-Bold-38" d="M 2228 2088 
Q 1891 2088 1709 1903 
Q 1528 1719 1528 1375 
Q 1528 1031 1709 848 
Q 1891 666 2228 666 
Q 2563 666 2741 848 
Q 2919 1031 2919 1375 
Q 2919 1722 2741 1905 
Q 2563 2088 2228 2088 
z
M 1350 2484 
Q 925 2613 709 2878 
Q 494 3144 494 3541 
Q 494 4131 934 4440 
Q 1375 4750 2228 4750 
Q 3075 4750 3515 4442 
Q 3956 4134 3956 3541 
Q 3956 3144 3739 2878 
Q 3522 2613 3097 2484 
Q 3572 2353 3814 2058 
Q 4056 1763 4056 1313 
Q 4056 619 3595 264 
Q 3134 -91 2228 -91 
Q 1319 -91 855 264 
Q 391 619 391 1313 
Q 391 1763 633 2058 
Q 875 2353 1350 2484 
z
M 1631 3419 
Q 1631 3141 1786 2991 
Q 1941 2841 2228 2841 
Q 2509 2841 2662 2991 
Q 2816 3141 2816 3419 
Q 2816 3697 2662 3845 
Q 2509 3994 2228 3994 
Q 1941 3994 1786 3844 
Q 1631 3694 1631 3419 
z
" transform="scale(0.015625)"/>
      <path id="DejaVuSans-Bold-37" d="M 428 4666 
L 3944 4666 
L 3944 3988 
L 2125 0 
L 953 0 
L 2675 3781 
L 428 3781 
L 428 4666 
z
" transform="scale(0.015625)"/>
      <path id="DejaVuSans-Bold-34" d="M 2356 3675 
L 1038 1722 
L 2356 1722 
L 2356 3675 
z
M 2156 4666 
L 3494 4666 
L 3494 1722 
L 4159 1722 
L 4159 850 
L 3494 850 
L 3494 0 
L 2356 0 
L 2356 850 
L 288 850 
L 288 1881 
L 2156 4666 
z
" transform="scale(0.015625)"/>
     </defs>
     <use xlink:href="#DejaVuSans-Bold-6e"/>
     <use xlink:href="#DejaVuSans-Bold-3d" transform="translate(71.191406 0)"/>
     <use xlink:href="#DejaVuSans-Bold-35" transform="translate(154.980469 0)"/>
     <use xlink:href="#DejaVuSans-Bold-32" transform="translate(224.560547 0)"/>
     <use xlink:href="#DejaVuSans-Bold-38" transform="translate(294.140625 0)"/>
     <use xlink:href="#DejaVuSans-Bold-37" transform="translate(363.720703 0)"/>
     <use xlink:href="#DejaVuSans-Bold-34" transform="translate(433.300781 0)"/>
    </g>
    <!-- 81% absent -->
    <g style="fill: #ffffff" transform="translate(137.226631 196.982269) scale(0.09 -0.09)">
     <defs>
      <path id="DejaVuSans-Bold-31" d="M 750 831 
L 1813 831 
L 1813 3847 
L 722 3622 
L 722 4441 
L 1806 4666 
L 2950 4666 
L 2950 831 
L 4013 831 
L 4013 0 
L 750 0 
L 750 831 
z
" transform="scale(0.015625)"/>
      <path id="DejaVuSans-Bold-25" d="M 4959 1925 
Q 4738 1925 4616 1733 
Q 4494 1541 4494 1184 
Q 4494 825 4614 633 
Q 4734 441 4959 441 
Q 5184 441 5303 633 
Q 5422 825 5422 1184 
Q 5422 1541 5301 1733 
Q 5181 1925 4959 1925 
z
M 4959 2450 
Q 5541 2450 5875 2112 
Q 6209 1775 6209 1184 
Q 6209 594 5875 251 
Q 5541 -91 4959 -91 
Q 4378 -91 4042 251 
Q 3706 594 3706 1184 
Q 3706 1772 4042 2111 
Q 4378 2450 4959 2450 
z
M 2094 -91 
L 1403 -91 
L 4319 4750 
L 5013 4750 
L 2094 -91 
z
M 1453 4750 
Q 2034 4750 2367 4411 
Q 2700 4072 2700 3481 
Q 2700 2891 2367 2550 
Q 2034 2209 1453 2209 
Q 872 2209 539 2550 
Q 206 2891 206 3481 
Q 206 4072 539 4411 
Q 872 4750 1453 4750 
z
M 1453 4225 
Q 1228 4225 1106 4031 
Q 984 3838 984 3481 
Q 984 3122 1106 2926 
Q 1228 2731 1453 2731 
Q 1678 2731 1798 2926 
Q 1919 3122 1919 3481 
Q 1919 3838 1797 4031 
Q 1675 4225 1453 4225 
z
" transform="scale(0.015625)"/>
      <path id="DejaVuSans-Bold-20" transform="scale(0.015625)"/>
      <path id="DejaVuSans-Bold-61" d="M 2106 1575 
Q 1756 1575 1579 1456 
Q 1403 1338 1403 1106 
Q 1403 894 1545 773 
Q 1688 653 1941 653 
Q 2256 653 2472 879 
Q 2688 1106 2688 1447 
L 2688 1575 
L 2106 1575 
z
M 3816 1997 
L 3816 0 
L 2688 0 
L 2688 519 
Q 2463 200 2181 54 
Q 1900 -91 1497 -91 
Q 953 -91 614 226 
Q 275 544 275 1050 
Q 275 1666 698 1953 
Q 1122 2241 2028 2241 
L 2688 2241 
L 2688 2328 
Q 2688 2594 2478 2717 
Q 2269 2841 1825 2841 
Q 1466 2841 1156 2769 
Q 847 2697 581 2553 
L 581 3406 
Q 941 3494 1303 3539 
Q 1666 3584 2028 3584 
Q 2975 3584 3395 3211 
Q 3816 2838 3816 1997 
z
" transform="scale(0.015625)"/>
      <path id="DejaVuSans-Bold-62" d="M 2400 722 
Q 2759 722 2948 984 
Q 3138 1247 3138 1747 
Q 3138 2247 2948 2509 
Q 2759 2772 2400 2772 
Q 2041 2772 1848 2508 
Q 1656 2244 1656 1747 
Q 1656 1250 1848 986 
Q 2041 722 2400 722 
z
M 1656 2988 
Q 1888 3294 2169 3439 
Q 2450 3584 2816 3584 
Q 3463 3584 3878 3070 
Q 4294 2556 4294 1747 
Q 4294 938 3878 423 
Q 3463 -91 2816 -91 
Q 2450 -91 2169 54 
Q 1888 200 1656 506 
L 1656 0 
L 538 0 
L 538 4863 
L 1656 4863 
L 1656 2988 
z
" transform="scale(0.015625)"/>
      <path id="DejaVuSans-Bold-73" d="M 3272 3391 
L 3272 2541 
Q 2913 2691 2578 2766 
Q 2244 2841 1947 2841 
Q 1628 2841 1473 2761 
Q 1319 2681 1319 2516 
Q 1319 2381 1436 2309 
Q 1553 2238 1856 2203 
L 2053 2175 
Q 2913 2066 3209 1816 
Q 3506 1566 3506 1031 
Q 3506 472 3093 190 
Q 2681 -91 1863 -91 
Q 1516 -91 1145 -36 
Q 775 19 384 128 
L 384 978 
Q 719 816 1070 734 
Q 1422 653 1784 653 
Q 2113 653 2278 743 
Q 2444 834 2444 1013 
Q 2444 1163 2330 1236 
Q 2216 1309 1875 1350 
L 1678 1375 
Q 931 1469 631 1722 
Q 331 1975 331 2491 
Q 331 3047 712 3315 
Q 1094 3584 1881 3584 
Q 2191 3584 2531 3537 
Q 2872 3491 3272 3391 
z
" transform="scale(0.015625)"/>
     </defs>
     <use xlink:href="#DejaVuSans-Bold-38"/>
     <use xlink:href="#DejaVuSans-Bold-31" transform="translate(69.580078 0)"/>
     <use xlink:href="#DejaVuSans-Bold-25" transform="translate(139.160156 0)"/>
     <use xlink:href="#DejaVuSans-Bold-20" transform="translate(239.355469 0)"/>
     <use xlink:href="#DejaVuSans-Bold-61" transform="translate(274.169922 0)"/>
     <use xlink:href="#DejaVuSans-Bold-62" transform="translate(341.650391 0)"/>
     <use xlink:href="#DejaVuSans-Bold-73" transform="translate(413.232422 0)"/>
     <use xlink:href="#DejaVuSans-Bold-65" transform="translate(472.753906 0)"/>
     <use xlink:href="#DejaVuSans-Bold-6e" transform="translate(540.576172 0)"/>
     <use xlink:href="#DejaVuSans-Bold-74" transform="translate(611.767578 0)"/>
    </g>
   </g>
   <g id="text_2">
    <!-- ls_only (other) -->
    <g style="fill: #ffffff" transform="translate(398.360531 176.70105) scale(0.09 -0.09)">
     <defs>
      <path id="DejaVuSans-Bold-6c" d="M 538 4863 
L 1656 4863 
L 1656 0 
L 538 0 
L 538 4863 
z
" transform="scale(0.015625)"/>
      <path id="DejaVuSans-Bold-5f" d="M 3200 -916 
L 3200 -1509 
L 0 -1509 
L 0 -916 
L 3200 -916 
z
" transform="scale(0.015625)"/>
      <path id="DejaVuSans-Bold-79" d="M 78 3500 
L 1197 3500 
L 2138 1125 
L 2938 3500 
L 4056 3500 
L 2584 -331 
Q 2363 -916 2067 -1148 
Q 1772 -1381 1288 -1381 
L 641 -1381 
L 641 -647 
L 991 -647 
Q 1275 -647 1404 -556 
Q 1534 -466 1606 -231 
L 1638 -134 
L 78 3500 
z
" transform="scale(0.015625)"/>
      <path id="DejaVuSans-Bold-28" d="M 2413 -844 
L 1484 -844 
Q 1006 -72 778 623 
Q 550 1319 550 2003 
Q 550 2688 779 3389 
Q 1009 4091 1484 4856 
L 2413 4856 
Q 2013 4116 1813 3408 
Q 1613 2700 1613 2009 
Q 1613 1319 1811 609 
Q 2009 -100 2413 -844 
z
" transform="scale(0.015625)"/>
      <path id="DejaVuSans-Bold-29" d="M 513 -844 
Q 913 -100 1113 609 
Q 1313 1319 1313 2009 
Q 1313 2700 1113 3408 
Q 913 4116 513 4856 
L 1441 4856 
Q 1916 4091 2145 3389 
Q 2375 2688 2375 2003 
Q 2375 1319 2147 623 
Q 1919 -72 1441 -844 
L 513 -844 
z
" transform="scale(0.015625)"/>
     </defs>
     <use xlink:href="#DejaVuSans-Bold-6c"/>
     <use xlink:href="#DejaVuSans-Bold-73" transform="translate(34.277344 0)"/>
     <use xlink:href="#DejaVuSans-Bold-5f" transform="translate(93.798828 0)"/>
     <use xlink:href="#DejaVuSans-Bold-6f" transform="translate(143.798828 0)"/>
     <use xlink:href="#DejaVuSans-Bold-6e" transform="translate(212.5 0)"/>
     <use xlink:href="#DejaVuSans-Bold-6c" transform="translate(283.691406 0)"/>
     <use xlink:href="#DejaVuSans-Bold-79" transform="translate(317.96875 0)"/>
     <use xlink:href="#DejaVuSans-Bold-20" transform="translate(383.154297 0)"/>
     <use xlink:href="#DejaVuSans-Bold-28" transform="translate(417.96875 0)"/>
     <use xlink:href="#DejaVuSans-Bold-6f" transform="translate(463.671875 0)"/>
     <use xlink:href="#DejaVuSans-Bold-74" transform="translate(532.373047 0)"/>
     <use xlink:href="#DejaVuSans-Bold-68" transform="translate(580.175781 0)"/>
     <use xlink:href="#DejaVuSans-Bold-65" transform="translate(651.367188 0)"/>
     <use xlink:href="#DejaVuSans-Bold-72" transform="translate(719.189453 0)"/>
     <use xlink:href="#DejaVuSans-Bold-29" transform="translate(768.505859 0)"/>
    </g>
    <!-- n=37930 -->
    <g style="fill: #ffffff" transform="translate(412.370297 187.029394) scale(0.09 -0.09)">
     <defs>
      <path id="DejaVuSans-Bold-33" d="M 2981 2516 
Q 3453 2394 3698 2092 
Q 3944 1791 3944 1325 
Q 3944 631 3412 270 
Q 2881 -91 1863 -91 
Q 1503 -91 1142 -33 
Q 781 25 428 141 
L 428 1069 
Q 766 900 1098 814 
Q 1431 728 1753 728 
Q 2231 728 2486 893 
Q 2741 1059 2741 1369 
Q 2741 1688 2480 1852 
Q 2219 2016 1709 2016 
L 1228 2016 
L 1228 2791 
L 1734 2791 
Q 2188 2791 2409 2933 
Q 2631 3075 2631 3366 
Q 2631 3634 2415 3781 
Q 2200 3928 1806 3928 
Q 1516 3928 1219 3862 
Q 922 3797 628 3669 
L 628 4550 
Q 984 4650 1334 4700 
Q 1684 4750 2022 4750 
Q 2931 4750 3382 4451 
Q 3834 4153 3834 3553 
Q 3834 3144 3618 2883 
Q 3403 2622 2981 2516 
z
" transform="scale(0.015625)"/>
      <path id="DejaVuSans-Bold-39" d="M 641 103 
L 641 966 
Q 928 831 1190 764 
Q 1453 697 1709 697 
Q 2247 697 2547 995 
Q 2847 1294 2900 1881 
Q 2688 1725 2447 1647 
Q 2206 1569 1925 1569 
Q 1209 1569 770 1986 
Q 331 2403 331 3084 
Q 331 3838 820 4291 
Q 1309 4744 2131 4744 
Q 3044 4744 3544 4128 
Q 4044 3513 4044 2388 
Q 4044 1231 3459 570 
Q 2875 -91 1856 -91 
Q 1528 -91 1228 -42 
Q 928 6 641 103 
z
M 2125 2350 
Q 2441 2350 2600 2554 
Q 2759 2759 2759 3169 
Q 2759 3575 2600 3781 
Q 2441 3988 2125 3988 
Q 1809 3988 1650 3781 
Q 1491 3575 1491 3169 
Q 1491 2759 1650 2554 
Q 1809 2350 2125 2350 
z
" transform="scale(0.015625)"/>
      <path id="DejaVuSans-Bold-30" d="M 2944 2338 
Q 2944 3213 2780 3570 
Q 2616 3928 2228 3928 
Q 1841 3928 1675 3570 
Q 1509 3213 1509 2338 
Q 1509 1453 1675 1090 
Q 1841 728 2228 728 
Q 2613 728 2778 1090 
Q 2944 1453 2944 2338 
z
M 4147 2328 
Q 4147 1169 3647 539 
Q 3147 -91 2228 -91 
Q 1306 -91 806 539 
Q 306 1169 306 2328 
Q 306 3491 806 4120 
Q 1306 4750 2228 4750 
Q 3147 4750 3647 4120 
Q 4147 3491 4147 2328 
z
" transform="scale(0.015625)"/>
     </defs>
     <use xlink:href="#DejaVuSans-Bold-6e"/>
     <use xlink:href="#DejaVuSans-Bold-3d" transform="translate(71.191406 0)"/>
     <use xlink:href="#DejaVuSans-Bold-33" transform="translate(154.980469 0)"/>
     <use xlink:href="#DejaVuSans-Bold-37" transform="translate(224.560547 0)"/>
     <use xlink:href="#DejaVuSans-Bold-39" transform="translate(294.140625 0)"/>
     <use xlink:href="#DejaVuSans-Bold-33" transform="translate(363.720703 0)"/>
     <use xlink:href="#DejaVuSans-Bold-30" transform="translate(433.300781 0)"/>
    </g>
    <!-- 88% absent -->
    <g style="fill: #ffffff" transform="translate(405.319359 197.107425) scale(0.09 -0.09)">
     <use xlink:href="#DejaVuSans-Bold-38"/>
     <use xlink:href="#DejaVuSans-Bold-38" transform="translate(69.580078 0)"/>
     <use xlink:href="#DejaVuSans-Bold-25" transform="translate(139.160156 0)"/>
     <use xlink:href="#DejaVuSans-Bold-20" transform="translate(239.355469 0)"/>
     <use xlink:href="#DejaVuSans-Bold-61" transform="translate(274.169922 0)"/>
     <use xlink:href="#DejaVuSans-Bold-62" transform="translate(341.650391 0)"/>
     <use xlink:href="#DejaVuSans-Bold-73" transform="translate(413.232422 0)"/>
     <use xlink:href="#DejaVuSans-Bold-65" transform="translate(472.753906 0)"/>
     <use xlink:href="#DejaVuSans-Bold-6e" transform="translate(540.576172 0)"/>
     <use xlink:href="#DejaVuSans-Bold-74" transform="translate(611.767578 0)"/>
    </g>
   </g>
   <g id="text_3">
    <!-- kavya -->
    <g style="fill: #ffffff" transform="translate(575.503445 176.79105) scale(0.09 -0.09)">
     <defs>
      <path id="DejaVuSans-Bold-6b" d="M 538 4863 
L 1656 4863 
L 1656 2216 
L 2944 3500 
L 4244 3500 
L 2534 1894 
L 4378 0 
L 3022 0 
L 1656 1459 
L 1656 0 
L 538 0 
L 538 4863 
z
" transform="scale(0.015625)"/>
      <path id="DejaVuSans-Bold-76" d="M 97 3500 
L 1216 3500 
L 2088 1081 
L 2956 3500 
L 4078 3500 
L 2700 0 
L 1472 0 
L 97 3500 
z
" transform="scale(0.015625)"/>
     </defs>
     <use xlink:href="#DejaVuSans-Bold-6b"/>
     <use xlink:href="#DejaVuSans-Bold-61" transform="translate(66.503906 0)"/>
     <use xlink:href="#DejaVuSans-Bold-76" transform="translate(133.984375 0)"/>
     <use xlink:href="#DejaVuSans-Bold-79" transform="translate(199.169922 0)"/>
     <use xlink:href="#DejaVuSans-Bold-61" transform="translate(264.355469 0)"/>
    </g>
    <!-- n=14717 -->
    <g style="fill: #ffffff" transform="translate(567.807038 186.939394) scale(0.09 -0.09)">
     <use xlink:href="#DejaVuSans-Bold-6e"/>
     <use xlink:href="#DejaVuSans-Bold-3d" transform="translate(71.191406 0)"/>
     <use xlink:href="#DejaVuSans-Bold-31" transform="translate(154.980469 0)"/>
     <use xlink:href="#DejaVuSans-Bold-34" transform="translate(224.560547 0)"/>
     <use xlink:href="#DejaVuSans-Bold-37" transform="translate(294.140625 0)"/>
     <use xlink:href="#DejaVuSans-Bold-31" transform="translate(363.720703 0)"/>
     <use xlink:href="#DejaVuSans-Bold-37" transform="translate(433.300781 0)"/>
    </g>
    <!-- 42% absent -->
    <g style="fill: #ffffff" transform="translate(560.756101 197.017425) scale(0.09 -0.09)">
     <use xlink:href="#DejaVuSans-Bold-34"/>
     <use xlink:href="#DejaVuSans-Bold-32" transform="translate(69.580078 0)"/>
     <use xlink:href="#DejaVuSans-Bold-25" transform="translate(139.160156 0)"/>
     <use xlink:href="#DejaVuSans-Bold-20" transform="translate(239.355469 0)"/>
     <use xlink:href="#DejaVuSans-Bold-61" transform="translate(274.169922 0)"/>
     <use xlink:href="#DejaVuSans-Bold-62" transform="translate(341.650391 0)"/>
     <use xlink:href="#DejaVuSans-Bold-73" transform="translate(413.232422 0)"/>
     <use xlink:href="#DejaVuSans-Bold-65" transform="translate(472.753906 0)"/>
     <use xlink:href="#DejaVuSans-Bold-6e" transform="translate(540.576172 0)"/>
     <use xlink:href="#DejaVuSans-Bold-74" transform="translate(611.767578 0)"/>
    </g>
   </g>
   <g id="legend_1">
    <g id="patch_12">
     <path d="M 144.074531 379.925026 
L 162.074531 379.925026 
L 162.074531 373.625026 
L 144.074531 373.625026 
z
" style="fill: #2b6f6f; stroke: #2b6f6f; stroke-linejoin: miter"/>
    </g>
    <g id="text_4">
     <!-- corpus-present (corpus_lexicon.jsonl exact-match) -->
     <g transform="translate(169.274531 379.925026) scale(0.09 -0.09)">
      <defs>
       <path id="DejaVuSans-63" d="M 3122 3366 
L 3122 2828 
Q 2878 2963 2633 3030 
Q 2388 3097 2138 3097 
Q 1578 3097 1268 2742 
Q 959 2388 959 1747 
Q 959 1106 1268 751 
Q 1578 397 2138 397 
Q 2388 397 2633 464 
Q 2878 531 3122 666 
L 3122 134 
Q 2881 22 2623 -34 
Q 2366 -91 2075 -91 
Q 1284 -91 818 406 
Q 353 903 353 1747 
Q 353 2603 823 3093 
Q 1294 3584 2113 3584 
Q 2378 3584 2631 3529 
Q 2884 3475 3122 3366 
z
" transform="scale(0.015625)"/>
       <path id="DejaVuSans-6f" d="M 1959 3097 
Q 1497 3097 1228 2736 
Q 959 2375 959 1747 
Q 959 1119 1226 758 
Q 1494 397 1959 397 
Q 2419 397 2687 759 
Q 2956 1122 2956 1747 
Q 2956 2369 2687 2733 
Q 2419 3097 1959 3097 
z
M 1959 3584 
Q 2709 3584 3137 3096 
Q 3566 2609 3566 1747 
Q 3566 888 3137 398 
Q 2709 -91 1959 -91 
Q 1206 -91 779 398 
Q 353 888 353 1747 
Q 353 2609 779 3096 
Q 1206 3584 1959 3584 
z
" transform="scale(0.015625)"/>
       <path id="DejaVuSans-72" d="M 2631 2963 
Q 2534 3019 2420 3045 
Q 2306 3072 2169 3072 
Q 1681 3072 1420 2755 
Q 1159 2438 1159 1844 
L 1159 0 
L 581 0 
L 581 3500 
L 1159 3500 
L 1159 2956 
Q 1341 3275 1631 3429 
Q 1922 3584 2338 3584 
Q 2397 3584 2469 3576 
Q 2541 3569 2628 3553 
L 2631 2963 
z
" transform="scale(0.015625)"/>
       <path id="DejaVuSans-70" d="M 1159 525 
L 1159 -1331 
L 581 -1331 
L 581 3500 
L 1159 3500 
L 1159 2969 
Q 1341 3281 1617 3432 
Q 1894 3584 2278 3584 
Q 2916 3584 3314 3078 
Q 3713 2572 3713 1747 
Q 3713 922 3314 415 
Q 2916 -91 2278 -91 
Q 1894 -91 1617 61 
Q 1341 213 1159 525 
z
M 3116 1747 
Q 3116 2381 2855 2742 
Q 2594 3103 2138 3103 
Q 1681 3103 1420 2742 
Q 1159 2381 1159 1747 
Q 1159 1113 1420 752 
Q 1681 391 2138 391 
Q 2594 391 2855 752 
Q 3116 1113 3116 1747 
z
" transform="scale(0.015625)"/>
       <path id="DejaVuSans-75" d="M 544 1381 
L 544 3500 
L 1119 3500 
L 1119 1403 
Q 1119 906 1312 657 
Q 1506 409 1894 409 
Q 2359 409 2629 706 
Q 2900 1003 2900 1516 
L 2900 3500 
L 3475 3500 
L 3475 0 
L 2900 0 
L 2900 538 
Q 2691 219 2414 64 
Q 2138 -91 1772 -91 
Q 1169 -91 856 284 
Q 544 659 544 1381 
z
M 1991 3584 
L 1991 3584 
z
" transform="scale(0.015625)"/>
       <path id="DejaVuSans-73" d="M 2834 3397 
L 2834 2853 
Q 2591 2978 2328 3040 
Q 2066 3103 1784 3103 
Q 1356 3103 1142 2972 
Q 928 2841 928 2578 
Q 928 2378 1081 2264 
Q 1234 2150 1697 2047 
L 1894 2003 
Q 2506 1872 2764 1633 
Q 3022 1394 3022 966 
Q 3022 478 2636 193 
Q 2250 -91 1575 -91 
Q 1294 -91 989 -36 
Q 684 19 347 128 
L 347 722 
Q 666 556 975 473 
Q 1284 391 1588 391 
Q 1994 391 2212 530 
Q 2431 669 2431 922 
Q 2431 1156 2273 1281 
Q 2116 1406 1581 1522 
L 1381 1569 
Q 847 1681 609 1914 
Q 372 2147 372 2553 
Q 372 3047 722 3315 
Q 1072 3584 1716 3584 
Q 2034 3584 2315 3537 
Q 2597 3491 2834 3397 
z
" transform="scale(0.015625)"/>
       <path id="DejaVuSans-2d" d="M 313 2009 
L 1997 2009 
L 1997 1497 
L 313 1497 
L 313 2009 
z
" transform="scale(0.015625)"/>
       <path id="DejaVuSans-65" d="M 3597 1894 
L 3597 1613 
L 953 1613 
Q 991 1019 1311 708 
Q 1631 397 2203 397 
Q 2534 397 2845 478 
Q 3156 559 3463 722 
L 3463 178 
Q 3153 47 2828 -22 
Q 2503 -91 2169 -91 
Q 1331 -91 842 396 
Q 353 884 353 1716 
Q 353 2575 817 3079 
Q 1281 3584 2069 3584 
Q 2775 3584 3186 3129 
Q 3597 2675 3597 1894 
z
M 3022 2063 
Q 3016 2534 2758 2815 
Q 2500 3097 2075 3097 
Q 1594 3097 1305 2825 
Q 1016 2553 972 2059 
L 3022 2063 
z
" transform="scale(0.015625)"/>
       <path id="DejaVuSans-6e" d="M 3513 2113 
L 3513 0 
L 2938 0 
L 2938 2094 
Q 2938 2591 2744 2837 
Q 2550 3084 2163 3084 
Q 1697 3084 1428 2787 
Q 1159 2491 1159 1978 
L 1159 0 
L 581 0 
L 581 3500 
L 1159 3500 
L 1159 2956 
Q 1366 3272 1645 3428 
Q 1925 3584 2291 3584 
Q 2894 3584 3203 3211 
Q 3513 2838 3513 2113 
z
" transform="scale(0.015625)"/>
       <path id="DejaVuSans-74" d="M 1172 4494 
L 1172 3500 
L 2356 3500 
L 2356 3053 
L 1172 3053 
L 1172 1153 
Q 1172 725 1289 603 
Q 1406 481 1766 481 
L 2356 481 
L 2356 0 
L 1766 0 
Q 1100 0 847 248 
Q 594 497 594 1153 
L 594 3053 
L 172 3053 
L 172 3500 
L 594 3500 
L 594 4494 
L 1172 4494 
z
" transform="scale(0.015625)"/>
       <path id="DejaVuSans-20" transform="scale(0.015625)"/>
       <path id="DejaVuSans-28" d="M 1984 4856 
Q 1566 4138 1362 3434 
Q 1159 2731 1159 2009 
Q 1159 1288 1364 580 
Q 1569 -128 1984 -844 
L 1484 -844 
Q 1016 -109 783 600 
Q 550 1309 550 2009 
Q 550 2706 781 3412 
Q 1013 4119 1484 4856 
L 1984 4856 
z
" transform="scale(0.015625)"/>
       <path id="DejaVuSans-5f" d="M 3263 -1063 
L 3263 -1509 
L -63 -1509 
L -63 -1063 
L 3263 -1063 
z
" transform="scale(0.015625)"/>
       <path id="DejaVuSans-6c" d="M 603 4863 
L 1178 4863 
L 1178 0 
L 603 0 
L 603 4863 
z
" transform="scale(0.015625)"/>
       <path id="DejaVuSans-78" d="M 3513 3500 
L 2247 1797 
L 3578 0 
L 2900 0 
L 1881 1375 
L 863 0 
L 184 0 
L 1544 1831 
L 300 3500 
L 978 3500 
L 1906 2253 
L 2834 3500 
L 3513 3500 
z
" transform="scale(0.015625)"/>
       <path id="DejaVuSans-69" d="M 603 3500 
L 1178 3500 
L 1178 0 
L 603 0 
L 603 3500 
z
M 603 4863 
L 1178 4863 
L 1178 4134 
L 603 4134 
L 603 4863 
z
" transform="scale(0.015625)"/>
       <path id="DejaVuSans-2e" d="M 684 794 
L 1344 794 
L 1344 0 
L 684 0 
L 684 794 
z
" transform="scale(0.015625)"/>
       <path id="DejaVuSans-6a" d="M 603 3500 
L 1178 3500 
L 1178 -63 
Q 1178 -731 923 -1031 
Q 669 -1331 103 -1331 
L -116 -1331 
L -116 -844 
L 38 -844 
Q 366 -844 484 -692 
Q 603 -541 603 -63 
L 603 3500 
z
M 603 4863 
L 1178 4863 
L 1178 4134 
L 603 4134 
L 603 4863 
z
" transform="scale(0.015625)"/>
       <path id="DejaVuSans-61" d="M 2194 1759 
Q 1497 1759 1228 1600 
Q 959 1441 959 1056 
Q 959 750 1161 570 
Q 1363 391 1709 391 
Q 2188 391 2477 730 
Q 2766 1069 2766 1631 
L 2766 1759 
L 2194 1759 
z
M 3341 1997 
L 3341 0 
L 2766 0 
L 2766 531 
Q 2569 213 2275 61 
Q 1981 -91 1556 -91 
Q 1019 -91 701 211 
Q 384 513 384 1019 
Q 384 1609 779 1909 
Q 1175 2209 1959 2209 
L 2766 2209 
L 2766 2266 
Q 2766 2663 2505 2880 
Q 2244 3097 1772 3097 
Q 1472 3097 1187 3025 
Q 903 2953 641 2809 
L 641 3341 
Q 956 3463 1253 3523 
Q 1550 3584 1831 3584 
Q 2591 3584 2966 3190 
Q 3341 2797 3341 1997 
z
" transform="scale(0.015625)"/>
       <path id="DejaVuSans-6d" d="M 3328 2828 
Q 3544 3216 3844 3400 
Q 4144 3584 4550 3584 
Q 5097 3584 5394 3201 
Q 5691 2819 5691 2113 
L 5691 0 
L 5113 0 
L 5113 2094 
Q 5113 2597 4934 2840 
Q 4756 3084 4391 3084 
Q 3944 3084 3684 2787 
Q 3425 2491 3425 1978 
L 3425 0 
L 2847 0 
L 2847 2094 
Q 2847 2600 2669 2842 
Q 2491 3084 2119 3084 
Q 1678 3084 1418 2786 
Q 1159 2488 1159 1978 
L 1159 0 
L 581 0 
L 581 3500 
L 1159 3500 
L 1159 2956 
Q 1356 3278 1631 3431 
Q 1906 3584 2284 3584 
Q 2666 3584 2933 3390 
Q 3200 3197 3328 2828 
z
" transform="scale(0.015625)"/>
       <path id="DejaVuSans-68" d="M 3513 2113 
L 3513 0 
L 2938 0 
L 2938 2094 
Q 2938 2591 2744 2837 
Q 2550 3084 2163 3084 
Q 1697 3084 1428 2787 
Q 1159 2491 1159 1978 
L 1159 0 
L 581 0 
L 581 4863 
L 1159 4863 
L 1159 2956 
Q 1366 3272 1645 3428 
Q 1925 3584 2291 3584 
Q 2894 3584 3203 3211 
Q 3513 2838 3513 2113 
z
" transform="scale(0.015625)"/>
       <path id="DejaVuSans-29" d="M 513 4856 
L 1013 4856 
Q 1481 4119 1714 3412 
Q 1947 2706 1947 2009 
Q 1947 1309 1714 600 
Q 1481 -109 1013 -844 
L 513 -844 
Q 928 -128 1133 580 
Q 1338 1288 1338 2009 
Q 1338 2731 1133 3434 
Q 928 4138 513 4856 
z
" transform="scale(0.015625)"/>
      </defs>
      <use xlink:href="#DejaVuSans-63"/>
      <use xlink:href="#DejaVuSans-6f" transform="translate(54.980469 0)"/>
      <use xlink:href="#DejaVuSans-72" transform="translate(116.162109 0)"/>
      <use xlink:href="#DejaVuSans-70" transform="translate(157.275391 0)"/>
      <use xlink:href="#DejaVuSans-75" transform="translate(220.751953 0)"/>
      <use xlink:href="#DejaVuSans-73" transform="translate(284.130859 0)"/>
      <use xlink:href="#DejaVuSans-2d" transform="translate(336.230469 0)"/>
      <use xlink:href="#DejaVuSans-70" transform="translate(372.314453 0)"/>
      <use xlink:href="#DejaVuSans-72" transform="translate(435.791016 0)"/>
      <use xlink:href="#DejaVuSans-65" transform="translate(474.654297 0)"/>
      <use xlink:href="#DejaVuSans-73" transform="translate(536.177734 0)"/>
      <use xlink:href="#DejaVuSans-65" transform="translate(588.277344 0)"/>
      <use xlink:href="#DejaVuSans-6e" transform="translate(649.800781 0)"/>
      <use xlink:href="#DejaVuSans-74" transform="translate(713.179688 0)"/>
      <use xlink:href="#DejaVuSans-20" transform="translate(752.388672 0)"/>
      <use xlink:href="#DejaVuSans-28" transform="translate(784.175781 0)"/>
      <use xlink:href="#DejaVuSans-63" transform="translate(823.189453 0)"/>
      <use xlink:href="#DejaVuSans-6f" transform="translate(878.169922 0)"/>
      <use xlink:href="#DejaVuSans-72" transform="translate(939.351562 0)"/>
      <use xlink:href="#DejaVuSans-70" transform="translate(980.464844 0)"/>
      <use xlink:href="#DejaVuSans-75" transform="translate(1043.941406 0)"/>
      <use xlink:href="#DejaVuSans-73" transform="translate(1107.320312 0)"/>
      <use xlink:href="#DejaVuSans-5f" transform="translate(1159.419922 0)"/>
      <use xlink:href="#DejaVuSans-6c" transform="translate(1209.419922 0)"/>
      <use xlink:href="#DejaVuSans-65" transform="translate(1237.203125 0)"/>
      <use xlink:href="#DejaVuSans-78" transform="translate(1296.976562 0)"/>
      <use xlink:href="#DejaVuSans-69" transform="translate(1356.15625 0)"/>
      <use xlink:href="#DejaVuSans-63" transform="translate(1383.939453 0)"/>
      <use xlink:href="#DejaVuSans-6f" transform="translate(1438.919922 0)"/>
      <use xlink:href="#DejaVuSans-6e" transform="translate(1500.101562 0)"/>
      <use xlink:href="#DejaVuSans-2e" transform="translate(1563.480469 0)"/>
      <use xlink:href="#DejaVuSans-6a" transform="translate(1595.267578 0)"/>
      <use xlink:href="#DejaVuSans-73" transform="translate(1623.050781 0)"/>
      <use xlink:href="#DejaVuSans-6f" transform="translate(1675.150391 0)"/>
      <use xlink:href="#DejaVuSans-6e" transform="translate(1736.332031 0)"/>
      <use xlink:href="#DejaVuSans-6c" transform="translate(1799.710938 0)"/>
      <use xlink:href="#DejaVuSans-20" transform="translate(1827.494141 0)"/>
      <use xlink:href="#DejaVuSans-65" transform="translate(1859.28125 0)"/>
      <use xlink:href="#DejaVuSans-78" transform="translate(1919.054688 0)"/>
      <use xlink:href="#DejaVuSans-61" transform="translate(1978.234375 0)"/>
      <use xlink:href="#DejaVuSans-63" transform="translate(2039.513672 0)"/>
      <use xlink:href="#DejaVuSans-74" transform="translate(2094.494141 0)"/>
      <use xlink:href="#DejaVuSans-2d" transform="translate(2133.703125 0)"/>
      <use xlink:href="#DejaVuSans-6d" transform="translate(2169.787109 0)"/>
      <use xlink:href="#DejaVuSans-61" transform="translate(2267.199219 0)"/>
      <use xlink:href="#DejaVuSans-74" transform="translate(2328.478516 0)"/>
      <use xlink:href="#DejaVuSans-63" transform="translate(2367.6875 0)"/>
      <use xlink:href="#DejaVuSans-68" transform="translate(2422.667969 0)"/>
      <use xlink:href="#DejaVuSans-29" transform="translate(2486.046875 0)"/>
     </g>
    </g>
    <g id="patch_13">
     <path d="M 414.530156 379.925026 
L 432.530156 379.925026 
L 432.530156 373.625026 
L 414.530156 373.625026 
z
" style="fill: #c65b4e; stroke: #c65b4e; stroke-linejoin: miter"/>
    </g>
    <g id="text_5">
     <!-- corpus-absent -->
     <g transform="translate(439.730156 379.925026) scale(0.09 -0.09)">
      <defs>
       <path id="DejaVuSans-62" d="M 3116 1747 
Q 3116 2381 2855 2742 
Q 2594 3103 2138 3103 
Q 1681 3103 1420 2742 
Q 1159 2381 1159 1747 
Q 1159 1113 1420 752 
Q 1681 391 2138 391 
Q 2594 391 2855 752 
Q 3116 1113 3116 1747 
z
M 1159 2969 
Q 1341 3281 1617 3432 
Q 1894 3584 2278 3584 
Q 2916 3584 3314 3078 
Q 3713 2572 3713 1747 
Q 3713 922 3314 415 
Q 2916 -91 2278 -91 
Q 1894 -91 1617 61 
Q 1341 213 1159 525 
L 1159 0 
L 581 0 
L 581 4863 
L 1159 4863 
L 1159 2969 
z
" transform="scale(0.015625)"/>
      </defs>
      <use xlink:href="#DejaVuSans-63"/>
      <use xlink:href="#DejaVuSans-6f" transform="translate(54.980469 0)"/>
      <use xlink:href="#DejaVuSans-72" transform="translate(116.162109 0)"/>
      <use xlink:href="#DejaVuSans-70" transform="translate(157.275391 0)"/>
      <use xlink:href="#DejaVuSans-75" transform="translate(220.751953 0)"/>
      <use xlink:href="#DejaVuSans-73" transform="translate(284.130859 0)"/>
      <use xlink:href="#DejaVuSans-2d" transform="translate(336.230469 0)"/>
      <use xlink:href="#DejaVuSans-61" transform="translate(372.314453 0)"/>
      <use xlink:href="#DejaVuSans-62" transform="translate(433.59375 0)"/>
      <use xlink:href="#DejaVuSans-73" transform="translate(497.070312 0)"/>
      <use xlink:href="#DejaVuSans-65" transform="translate(549.169922 0)"/>
      <use xlink:href="#DejaVuSans-6e" transform="translate(610.693359 0)"/>
      <use xlink:href="#DejaVuSans-74" transform="translate(674.072266 0)"/>
     </g>
    </g>
   </g>
  </g>
 </g>
 <defs>
  <clipPath id="p640435f216">
   <rect x="10.8" y="10.8" width="626.4" height="347.2416"/>
  </clipPath>
 </defs>
</svg>
